# AST/ASF file generated using VICON BodyLanguage
# -----------------------------------------------
:version 1.10
:name VICON
:units
  mass 1.0
  length 0.45
  angle deg
:documentation
   .ast/.asf automatically generated from VICON data using
   VICON BodyBuilder and BodyLanguage model FoxedUp or BRILLIANT.MOD
:root
   order TX TY TZ RX RY RZ
   axis XYZ
   position 0 0 0  
   orientation 0 0 0 
:bonedata
  begin
     id 1 
     name lhipjoint
     direction 0.567149 -0.783011 0.255413 
     length 2.28399 
     axis 0 0 0  XYZ
  end
  begin
     id 2 
     name lfemur
     direction 0.34202 -0.939693 0  
     length 7.34031  
     axis 0 0 20  XYZ
    dof rx ry rz
    limits (-160.0 20.0)
           (-70.0 70.0)
           (-60.0 70.0)
  end
  begin
     id 3 
     name ltibia
     direction 0.34202 -0.939693 0   
     length 6.9833   
     axis 0 0 20   XYZ
    dof rx
    limits (-10.0 170.0)
  end
  begin
     id 4 
     name lfoot
     direction 0.136498 -0.375025 0.91691   
     length 2.33665   
     axis -90 7.62852e-016 20   XYZ
    dof rx rz
    limits (-45.0 90.0)
           (-70.0 20.0)
  end
  begin
     id 5 
     name ltoes
     direction 1.5367e-011 -4.21617e-011 1   
     length 1.15039   
     axis -90 7.62852e-016 20   XYZ
    dof rx
    limits (-90.0 20.0)
  end
  begin
     id 6 
     name rhipjoint
     direction -0.602854 -0.758518 0.247423   
     length 2.35775  
     axis 0 0 0  XYZ 
  end
  begin
     id 7 
     name rfemur
     direction -0.34202 -0.939693 0   
     length 7.43932   
     axis 0 0 -20   XYZ
    dof rx ry rz
    limits (-160.0 20.0)
           (-70.0 70.0)
           (-70.0 60.0)
  end
  begin
     id 8 
     name rtibia
     direction -0.34202 -0.939693 0   
     length 7.11893   
     axis 0 0 -20   XYZ
    dof rx
    limits (-10.0 170.0)
 end
 begin
     id 9 
     name rfoot
     direction -0.131771 -0.362037 0.922803   
     length 2.53019  
     axis -90 -7.62852e-016 -20   XYZ
    dof rx rz
    limits (-45.0 90.0)
           (-20.0 70.0)
  end
  begin
     id 10 
     name rtoes
     direction -1.53733e-011 -4.21932e-011 1   
     length 1.24596   
     axis -90 -7.62852e-016 -20   XYZ
    dof rx
    limits (-90.0 20.0)
  end
  begin
     id 11 
     name lowerback
     direction 0.0235427 0.999023 -0.0374125   
     length 2.21768   
     axis 0 0 0   XYZ
    dof rx ry rz
    limits (-20.0 45.0)
           (-30.0 30.0)
           (-30.0 30.0)
  end
  begin
     id 12 
     name upperback
     direction 0.0302156 0.996818 -0.073759   
     length 2.20352   
     axis 0 0 0   XYZ
    dof rx ry rz
    limits (-20.0 45.0)
           (-30.0 30.0)
           (-30.0 30.0)
  end
  begin
     id 13 
     name thorax
     direction 0.0187169 0.998235 -0.0563532   
     length 2.22103   
     axis 0 0 0   XYZ
    dof rx ry rz
    limits (-20.0 45.0)
           (-30.0 30.0)
           (-30.0 30.0)
  end
  begin
     id 14 
     name lowerneck
     direction -0.119528 0.987423 0.103481   
     length 1.72948   
     axis 0 0 0   XYZ
    dof rx ry rz
    limits (-20.0 45.0)
           (-30.0 30.0)
           (-30.0 30.0)
  end
  begin
     id 15 
     name upperneck
     direction 0.248049 0.963095 -0.104496   
     length 1.74979   
     axis 0 0 0   XYZ
    dof rx ry rz
    limits (-20.0 45.0)
           (-30.0 30.0)
           (-30.0 30.0)
  end
  begin
     id 16
     name head
     direction 0.0903589 0.994284 -0.056876  
     length 1.78268  
     axis 0 0 0   XYZ
    dof rx ry rz
    limits (-20.0 45.0)
           (-30.0 30.0)
           (-30.0 30.0)
  end
  begin
     id 17 
     name lclavicle
     direction 0.946008 0.242039 -0.215608  
     length 3.80783  
     axis 0 0 0   XYZ
    dof ry rz
    limits (-20.0 10.0)
           (0.0 20.0)
  end
  begin
     id 18 
     name lhumerus
     direction 1 -4.48991e-011 -2.25695e-027   
     length 4.83125   
     axis 180 -30 -90   XYZ
    dof rx ry rz
    limits (-60.0 90.0)
           (-90.0 90.0)
           (-90.0 90.0)
  end
  begin
     id 19
     name lradius
     direction 0.999991 0.00366712 -0.00211721   
     length 3.00391   
     axis 180 -30 -90   XYZ
    dof rx
    limits (-10.0 170.0)
  end
  begin
     id 20
     name lwrist
     direction 0.999991 0.00393016 -0.00141978   
     length 1.50195   
     axis -1.00488e-014 90 90   XYZ
    dof ry
    limits (-180.0 0.0)
 end
  begin
     id 21 
     name lhand
     direction 1 -4.49123e-011 2.72098e-026   
     length 1.2717   
     axis -1.73687e-014 90 90   XYZ
    dof rx rz
    limits (-90.0 90.0)
           (-45.0 45.0)
  end
  begin
     id 22 
     name lfingers
     direction 1 -4.48678e-011 5.4479e-026   
     length 1.02528   
     axis -3.47372e-014 90 90   XYZ
    dof rx
    limits (0.0 90.0)
  end
  begin
     id 23
     name lthumb
     direction 0.707107 -6.34851e-011 0.707107   
     length 1.4721   
     axis -90 45 -1.62303e-014   XYZ
    dof rx rz
    limits (-45.0 45.0)
           (-45.0 45.0)
  end
  begin
     id 24 
     name rclavicle
     direction -0.981723 0.189447 -0.0181673   
     length 3.74989  
     axis 0 0 0   XYZ 
    dof ry rz
    limits (-10.0 20.0)
           (-20.0 0.0)
  end
  begin
     id 25 
     name rhumerus
     direction -1 -4.48985e-011 2.38206e-027  
     length 4.61118   
     axis 180 30 90   XYZ
    dof rx ry rz
    limits (-90.0 60.0)
           (-90.0 90.0)
           (-90.0 90.0)
  end
  begin
     id 26 
     name rradius
     direction -1 -4.48977e-011 7.41019e-027   
     length 2.91491   
     axis 180 30 90   XYZ
    dof rx
    limits (-10.0 170.0)
  end
  begin
     id 27 
     name rwrist
     direction -1 -4.48549e-011 1.3624e-026   
     length 1.45745   
     axis -1.00488e-014 -90 -90   XYZ
    dof ry
    limits (-180.0 0.0)
  end
  begin
     id 28
     name rhand
     direction -1 -4.49107e-011 2.72109e-026   
     length 1.30769   
     axis -1.73687e-014 -90 -90   XYZ
    dof rx rz
    limits (-90.0 90.0)
           (-45.0 45.0)
  end
  begin
     id 29
     name rfingers
     direction -1 -4.48919e-011 5.44468e-026   
     length 1.05429   
     axis -3.47372e-014 -90 -90   XYZ
    dof rx
    limits (0.0 90.0)
  end
  begin
     id 30
     name rthumb
     direction -0.707107 -6.35315e-011 0.707107   
     length 1.51376   
     axis -90 -45 1.62303e-014   XYZ
    dof rx rz
    limits (-45.0 45.0)
           (-45.0 45.0)
  end
:hierarchy
  begin
    root lhipjoint rhipjoint lowerback
    lhipjoint lfemur
    lfemur ltibia
    ltibia lfoot
    lfoot ltoes
    rhipjoint rfemur
    rfemur rtibia
    rtibia rfoot
    rfoot rtoes
    lowerback upperback
    upperback thorax
    thorax lowerneck lclavicle rclavicle
    lowerneck upperneck
    upperneck head
    lclavicle lhumerus
    lhumerus lradius
    lradius lwrist
    lwrist lhand lthumb
    lhand lfingers
    rclavicle rhumerus
    rhumerus rradius
    rradius rwrist
    rwrist rhand rthumb
    rhand rfingers
  end

#!OML:ASF X:\für Bonn\!DataBase\2005_08_11_Bastian_Final\c3d\Bastian.ASF
:FULLY-SPECIFIED
:DEGREES
1
root -16.2829 17.5075 -1.81666 35.4256 -79.6451 -47.3463
lowerback 10.7741 -0.667827 4.88447
upperback 3.69479 -0.463872 2.56136
thorax -2.1938 -0.295969 -0.0278332
lowerneck -6.58834 -5.57247 -7.8886
upperneck -7.84898 -6.856 8.82961
head -0.744893 -3.38976 4.17485
rclavicle -4.69784e-015 -5.36719e-015
rhumerus -36.306 8.51105 -84.5982
rradius 59.1761
rwrist -4.50489
rhand -14.1066 2.37091
rfingers 7.12502
rthumb 12.0263 -27.2636
lclavicle -4.69784e-015 -5.36719e-015
lhumerus -38.1057 7.96276 81.615
lradius 12.1142
lwrist 4.25675
lhand -9.87149 -7.5097
lfingers 7.12502
lthumb 16.1074 21.8409
rfemur -1.16026 0.533252 30.6179
rtibia 29.238
rfoot -8.7322 -7.87964
rtoes 4.37478
lfemur -13.3985 4.6118 -8.47292
ltibia 45.2905
lfoot -3.82765 -11.8476
ltoes -24.2481
2
root -16.3777 17.5153 -1.80671 36.566 -79.8277 -48.399
lowerback 10.7924 -0.576151 4.89307
upperback 3.6577 -0.33731 2.52999
thorax -2.23822 -0.233235 -0.0807175
lowerneck -6.63092 -5.56753 -7.85444
upperneck -7.86857 -6.84995 8.79779
head -0.747002 -3.38711 4.15627
rclavicle 4.50915e-015 -2.3556e-014
rhumerus -36.0625 8.69561 -84.5775
rradius 60.114
rwrist -4.28767
rhand -13.9532 2.4064
rfingers 7.12502
rthumb 12.1742 -27.2193
lclavicle 4.50915e-015 -2.3556e-014
lhumerus -38.3329 8.25856 81.3842
lradius 12.2128
lwrist 4.56942
lhand -9.82795 -7.33756
lfingers 7.12502
lthumb 16.1493 22.0097
rfemur -0.768413 0.615715 30.6603
rtibia 28.9969
rfoot -8.9407 -7.75054
rtoes 4.28652
lfemur -13.4612 4.25032 -8.53917
ltibia 43.2106
lfoot -3.55239 -11.2977
ltoes -23.5417
3
root -16.4723 17.5223 -1.79492 37.6855 -80.0131 -49.4333
lowerback 10.7866 -0.490507 4.90133
upperback 3.63737 -0.221821 2.50298
thorax -2.25213 -0.175577 -0.127877
lowerneck -6.67679 -5.56451 -7.89256
upperneck -7.90163 -6.84035 8.82633
head -0.748241 -3.38156 4.17346
rclavicle -3.34828e-015 1.08338e-014
rhumerus -35.7849 8.88731 -84.516
rradius 61.0718
rwrist -4.08052
rhand -13.801 2.46919
rfingers 7.12502
rthumb 12.321 -27.1478
lclavicle -3.34828e-015 1.08338e-014
lhumerus -38.5182 8.38895 81.3004
lradius 12.3156
lwrist 5.03898
lhand -9.83052 -7.14125
lfingers 7.12502
lthumb 16.1469 22.2062
rfemur -0.367067 0.687669 30.6766
rtibia 28.7333
rfoot -9.12081 -7.60554
rtoes 4.26081
lfemur -13.4837 3.82422 -8.59736
ltibia 41.175
lfoot -3.27978 -10.7242
ltoes -22.7223
4
root -16.567 17.5294 -1.78248 39.0172 -80.1906 -50.6674
lowerback 10.7566 -0.398654 4.94093
upperback 3.61647 -0.09648 2.475
thorax -2.2527 -0.112681 -0.194977
lowerneck -6.75595 -5.55613 -7.87884
upperneck -7.89949 -6.82684 8.80119
head -0.736503 -3.37398 4.15975
rclavicle -7.94207e-015 -2.41523e-014
rhumerus -35.4639 9.10184 -84.4358
rradius 61.9986
rwrist -3.80149
rhand -13.6914 2.52193
rfingers 7.12502
rthumb 12.4267 -27.0887
lclavicle -7.94207e-015 -2.41523e-014
lhumerus -38.6592 8.47309 81.2522
lradius 12.3692
lwrist 5.5501
lhand -9.84589 -6.99329
lfingers 7.12502
lthumb 16.132 22.3553
rfemur 0.0198971 0.661537 30.6907
rtibia 28.4678
rfoot -9.29281 -7.36033
rtoes 4.10329
lfemur -13.4905 3.34945 -8.61437
ltibia 39.208
lfoot -3.08609 -10.1243
ltoes -21.1758
